<?xml version="1.0" standalone="no"?>
<!DOCTYPE svg PUBLIC "-//W3C//DTD SVG 20010904//EN"
 "http://www.w3.org/TR/2001/REC-SVG-20010904/DTD/svg10.dtd">
<svg version="1.0" xmlns="http://www.w3.org/2000/svg"
 width="350.000000pt" height="350.000000pt" viewBox="0 0 350.000000 350.000000"
 preserveAspectRatio="xMidYMid meet">
<metadata>
Created by potrace 1.11, written by Peter Selinger 2001-2013
</metadata>
<g transform="translate(0.000000,350.000000) scale(0.100000,-0.100000)"
fill="#000000" stroke="none">
<path d="M2924 3475 c-181 -28 -491 -191 -679 -357 -95 -85 -213 -209 -247
-260 -17 -27 -35 -48 -38 -48 -4 0 -25 6 -46 13 -22 8 -50 11 -64 7 -14 -4
-45 -1 -70 6 -25 8 -46 14 -48 14 -7 1 -68 -34 -74 -43 -5 -9 -107 63 -157
111 -25 24 -118 92 -125 92 -4 0 -27 13 -50 30 -24 16 -142 79 -262 140 -121
61 -224 114 -230 119 -6 5 -21 12 -33 16 -12 4 -53 22 -90 40 -37 19 -132 52
-212 75 -79 23 -152 43 -161 46 -12 3 -22 -5 -33 -25 -8 -17 -13 -31 -9 -31 4
0 0 -7 -7 -17 -11 -12 -14 -55 -14 -177 0 -89 3 -181 7 -206 3 -25 9 -79 13
-120 7 -82 36 -149 131 -299 53 -86 72 -110 165 -208 53 -56 161 -143 177
-143 6 0 12 -4 14 -9 4 -11 228 -121 248 -121 8 0 -10 -14 -40 -32 -30 -17
-59 -36 -66 -42 -6 -6 -29 -24 -50 -41 -137 -107 -299 -260 -392 -370 -27 -33
-80 -105 -117 -160 l-66 -100 5 -145 c3 -80 8 -160 10 -178 3 -18 8 -50 11
-70 3 -21 6 -79 7 -128 1 -88 0 -91 -36 -141 -20 -28 -36 -55 -36 -62 0 -6 -5
-11 -12 -11 -6 0 -8 -3 -5 -6 6 -6 -20 -62 -34 -74 -3 -3 -12 -16 -19 -30 -13
-24 -77 -103 -134 -164 l-28 -30 58 -53 c33 -29 64 -53 70 -53 6 0 37 30 70
66 32 37 65 72 71 80 7 7 13 15 13 18 0 11 45 76 53 76 4 0 7 -7 7 -15 0 -13
13 -14 78 -11 105 7 159 25 239 82 76 55 147 102 180 120 12 7 28 17 35 23 7
6 45 34 83 61 39 28 100 80 137 117 l68 67 0 -90 c0 -49 -4 -96 -10 -104 -6
-9 -5 -19 2 -28 6 -7 12 -32 13 -55 1 -23 6 -78 11 -122 10 -93 11 -189 1
-295 -14 -148 -17 -211 -9 -206 10 6 88 13 322 31 41 3 98 8 125 11 28 3 91 6
140 8 50 2 95 5 100 6 23 5 36 -1 45 -24 8 -23 13 -24 67 -20 72 6 100 11 113
19 6 3 53 6 105 7 52 0 95 4 95 8 0 4 20 8 45 8 25 1 50 4 56 8 7 4 9 -3 7
-16 -2 -16 4 -25 19 -31 27 -10 27 -9 45 61 11 42 14 106 12 259 -2 112 -5
210 -8 218 -3 7 1 13 9 13 9 0 15 10 16 23 3 100 8 133 30 205 l12 42 36 -27
c20 -15 38 -30 41 -33 3 -3 25 -16 50 -29 25 -13 78 -46 119 -73 41 -28 101
-64 133 -80 60 -29 67 -29 98 2 3 3 39 34 80 70 139 119 196 174 275 262 82
91 95 110 90 136 -17 97 -224 548 -256 560 -5 2 -9 8 -9 14 0 10 -139 183
-194 242 -15 15 -64 72 -109 125 -45 53 -95 107 -111 121 -17 14 -39 34 -50
45 -12 11 -43 36 -71 55 -27 19 -58 43 -69 52 -19 17 -18 18 10 28 16 6 29 10
29 9 0 -6 181 91 245 132 115 73 218 188 313 350 l45 77 -4 118 c-5 165 -17
338 -30 439 -1 11 -3 26 -3 33 -1 16 -175 15 -287 -3z m-1290 -2001 c9 -3 16
-16 16 -28 0 -13 -3 -17 -8 -9 -4 6 -19 15 -35 18 -15 4 -24 11 -21 16 6 10
26 12 48 3z m813 -1046 c2 -40 1 -69 -4 -65 -4 5 -8 12 -9 15 0 4 -4 22 -8 40
-7 31 1 99 11 89 2 -3 7 -38 10 -79z m-10 -303 c0 -8 -4 -15 -9 -15 -4 0 -8 7
-8 15 0 8 4 15 8 15 5 0 9 -7 9 -15z"/>
</g>
</svg>
